<svg xmlns="http://www.w3.org/2000/svg" viewBox="0 0 257.52 74.27"><defs><style>.cls-1{fill:#ef0606;}.cls-2{fill:#454545;}</style></defs><title>reduct-logo-horizontal</title><g id="Layer_2" data-name="Layer 2"><g id="Hor-Logo"><g id="Logo"><g id="LogoMark"><polyline class="cls-1" points="98.4 0 64.02 37.91 44.66 40.77 71.82 74.27 44.47 56.87 26.33 46.69 43.91 31.76 62.07 27.52 82.87 5.63 51.02 5.63"/><g id="Pencil"><rect x="-4.55" y="27.11" width="61.24" height="6.12" transform="translate(65.83 33.06) rotate(135)"/><g id="PerfectNib"><polygon points="0 56.33 2.25 49.65 6.58 53.98 0 56.33"/></g></g></g><path class="cls-2" d="M98.61,27.69h4.91v3.07A7.85,7.85,0,0,1,109.93,27a10.37,10.37,0,0,1,4.36,1.15L112,32.6a5.05,5.05,0,0,0-2.86-1,4.73,4.73,0,0,0-4,1.78c-.82,1.09-1.64,3-1.64,7.64V56H98.61Z"/><path class="cls-2" d="M142.26,48.76a16.86,16.86,0,0,1-3.48,4.57,13.76,13.76,0,0,1-9.41,3.47c-6.82,0-14-4.29-14-14.8,0-8.45,5.19-15,13.71-15a12.62,12.62,0,0,1,10.7,5.18c1.78,2.52,2.8,6.88,2.67,10.63h-22c.07,5.87,4.1,9.62,9,9.62a8.63,8.63,0,0,0,5.8-2,11.42,11.42,0,0,0,2.93-3.89Zm-4.84-10c-.82-4.44-4.16-7.37-8.32-7.37a8.61,8.61,0,0,0-8.32,7.37Z"/><path class="cls-2" d="M171.68,6.27h4.9V56h-4.9V52A11.94,11.94,0,0,1,162,56.8c-7.16,0-13.77-5-13.77-15C148.22,32.05,154.76,27,162,27a11.73,11.73,0,0,1,9.69,4.7ZM153.26,41.8c0,6.07,3.41,10.64,9.27,10.64s9.41-5,9.41-10.57c0-7.3-5-10.5-9.41-10.5C157.7,31.37,153.26,34.92,153.26,41.8Z"/><path class="cls-2" d="M190.8,44.19c0,2,0,4.29,1.36,6.07a6.77,6.77,0,0,0,10,0c1.36-1.78,1.36-4.1,1.36-6.07V27.69h4.92v17c0,3.48-.35,6.07-2.6,8.53a12.35,12.35,0,0,1-17.31,0c-2.25-2.46-2.59-5-2.59-8.53v-17h4.91Z"/><path class="cls-2" d="M239.84,35.6A11.42,11.42,0,0,0,231,31.37c-5.25,0-10,3.68-10,10.57s4.91,10.5,10,10.5A12.07,12.07,0,0,0,240.05,48v5.86a15.12,15.12,0,0,1-9,2.93c-8.79,0-15.13-6.27-15.13-14.8S222.32,27,231,27a15,15,0,0,1,8.8,2.72Z"/><polygon class="cls-2" points="252.61 27.69 252.61 17.46 247.7 17.46 247.7 27.69 247.69 27.69 247.69 32.19 247.7 32.19 247.7 55.98 252.61 55.98 252.61 32.19 257.52 32.19 257.52 27.69 252.61 27.69"/></g></g></g></svg>